<svg width="135" height="135" viewBox="0 0 135 135" fill="none" xmlns="http://www.w3.org/2000/svg">
<path d="M135 67.5C135 104.779 104.779 135 67.5 135C30.2208 135 0 104.779 0 67.5C0 30.2208 30.2208 0 67.5 0C104.779 0 135 30.2208 135 67.5ZM13.1955 67.5C13.1955 97.4915 37.5085 121.804 67.5 121.804C97.4915 121.804 121.804 97.4915 121.804 67.5C121.804 37.5085 97.4915 13.1955 67.5 13.1955C37.5085 13.1955 13.1955 37.5085 13.1955 67.5Z" fill="#F7F7F7"/>
<path d="M135 67.5C135 51.2501 129.138 35.5456 118.49 23.2703C107.842 10.9949 93.1234 2.97285 77.0364 0.677051C60.9495 -1.61875 44.5743 1.96587 30.9178 10.7727C17.2613 19.5794 7.24016 33.0172 2.69462 48.6185C-1.85092 64.2197 -0.615752 80.937 6.1733 95.7008C12.9624 110.465 24.8496 122.284 39.6521 128.988C54.4546 135.692 71.1788 136.831 86.7537 132.196C102.329 127.561 115.708 117.462 124.437 103.756L113.306 96.668C106.284 107.695 95.5199 115.819 82.9898 119.548C70.4597 123.277 57.0049 122.361 45.0961 116.968C33.1873 111.574 23.6239 102.065 18.162 90.1879C12.7002 78.3102 11.7065 64.8609 15.3634 52.3096C19.0203 39.7582 27.0824 28.9474 38.0692 21.8623C49.056 14.7771 62.23 11.8932 75.1722 13.7402C88.1143 15.5872 99.9557 22.0411 108.522 31.9167C117.088 41.7923 121.804 54.4268 121.804 67.5H135Z" fill="url(#paint0_linear_16539_219)"/>
<path d="M57.66 67.38C56.2733 66.6867 55.58 65.5933 55.58 64.1C55.58 63.38 55.76 62.72 56.12 62.12C56.48 61.52 57.02 61.0467 57.74 60.7C58.46 60.34 59.34 60.16 60.38 60.16C61.4067 60.16 62.28 60.34 63 60.7C63.7333 61.0467 64.28 61.52 64.64 62.12C65 62.72 65.18 63.38 65.18 64.1C65.18 64.8467 64.9867 65.5067 64.6 66.08C64.2267 66.64 63.7267 67.0733 63.1 67.38C63.86 67.66 64.46 68.12 64.9 68.76C65.34 69.3867 65.56 70.1267 65.56 70.98C65.56 71.8467 65.34 72.6133 64.9 73.28C64.46 73.9467 63.8467 74.46 63.06 74.82C62.2733 75.18 61.38 75.36 60.38 75.36C59.38 75.36 58.4867 75.18 57.7 74.82C56.9267 74.46 56.32 73.9467 55.88 73.28C55.44 72.6133 55.22 71.8467 55.22 70.98C55.22 70.1133 55.44 69.3667 55.88 68.74C56.32 68.1133 56.9133 67.66 57.66 67.38ZM63 64.38C63 63.6333 62.7667 63.06 62.3 62.66C61.8333 62.26 61.1933 62.06 60.38 62.06C59.58 62.06 58.9467 62.26 58.48 62.66C58.0133 63.06 57.78 63.64 57.78 64.4C57.78 65.0667 58.02 65.6133 58.5 66.04C58.9933 66.4533 59.62 66.66 60.38 66.66C61.14 66.66 61.7667 66.4467 62.26 66.02C62.7533 65.5933 63 65.0467 63 64.38ZM60.38 68.38C59.5 68.38 58.78 68.6 58.22 69.04C57.6733 69.4667 57.4 70.0867 57.4 70.9C57.4 71.66 57.6667 72.28 58.2 72.76C58.7333 73.2267 59.46 73.46 60.38 73.46C61.2867 73.46 62 73.22 62.52 72.74C63.0533 72.26 63.32 71.6467 63.32 70.9C63.32 70.1 63.0467 69.48 62.5 69.04C61.9667 68.6 61.26 68.38 60.38 68.38ZM67.9539 67.52C67.9539 65.2133 68.3406 63.4133 69.1139 62.12C69.9006 60.8133 71.2472 60.16 73.1539 60.16C75.0606 60.16 76.4006 60.8133 77.1739 62.12C77.9606 63.4133 78.3539 65.2133 78.3539 67.52C78.3539 69.8533 77.9606 71.68 77.1739 73C76.4006 74.3067 75.0606 74.96 73.1539 74.96C71.2472 74.96 69.9006 74.3067 69.1139 73C68.3406 71.68 67.9539 69.8533 67.9539 67.52ZM76.1139 67.52C76.1139 66.44 76.0406 65.5267 75.8939 64.78C75.7606 64.0333 75.4806 63.4267 75.0539 62.96C74.6272 62.48 73.9939 62.24 73.1539 62.24C72.3139 62.24 71.6806 62.48 71.2539 62.96C70.8272 63.4267 70.5406 64.0333 70.3939 64.78C70.2606 65.5267 70.1939 66.44 70.1939 67.52C70.1939 68.64 70.2606 69.58 70.3939 70.34C70.5272 71.1 70.8072 71.7133 71.2339 72.18C71.6739 72.6467 72.3139 72.88 73.1539 72.88C73.9939 72.88 74.6272 72.6467 75.0539 72.18C75.4939 71.7133 75.7806 71.1 75.9139 70.34C76.0472 69.58 76.1139 68.64 76.1139 67.52Z" fill="#353535"/>
<defs>
<linearGradient id="paint0_linear_16539_219" x1="60.1875" y1="8.4375" x2="130.5" y2="179.438" gradientUnits="userSpaceOnUse">
<stop stop-color="#FBA81A"/>
<stop offset="1" stop-color="#EC1B24"/>
</linearGradient>
</defs>
</svg>
