<svg width="135" height="135" viewBox="0 0 135 135" fill="none" xmlns="http://www.w3.org/2000/svg">
<path d="M135 67.5C135 104.779 104.779 135 67.5 135C30.2208 135 0 104.779 0 67.5C0 30.2208 30.2208 0 67.5 0C104.779 0 135 30.2208 135 67.5ZM13.1955 67.5C13.1955 97.4915 37.5085 121.804 67.5 121.804C97.4915 121.804 121.804 97.4915 121.804 67.5C121.804 37.5085 97.4915 13.1955 67.5 13.1955C37.5085 13.1955 13.1955 37.5085 13.1955 67.5Z" fill="#F7F7F7"/>
<path d="M135 67.5C135 51.2501 129.138 35.5456 118.49 23.2703C107.842 10.9949 93.1234 2.97285 77.0364 0.677051C60.9495 -1.61875 44.5743 1.96587 30.9178 10.7727C17.2613 19.5794 7.24016 33.0172 2.69462 48.6185C-1.85092 64.2197 -0.615752 80.937 6.1733 95.7008C12.9624 110.465 24.8496 122.284 39.6521 128.988C54.4546 135.692 71.1788 136.831 86.7537 132.196C102.329 127.561 115.708 117.462 124.437 103.756L113.306 96.668C106.284 107.695 95.5199 115.819 82.9898 119.548C70.4597 123.277 57.0049 122.361 45.0961 116.968C33.1873 111.574 23.6239 102.065 18.162 90.1879C12.7002 78.3102 11.7065 64.8609 15.3634 52.3096C19.0203 39.7582 27.0824 28.9474 38.0692 21.8623C49.056 14.7771 62.23 11.8932 75.1722 13.7402C88.1143 15.5872 99.9557 22.0411 108.522 31.9167C117.088 41.7923 121.804 54.4268 121.804 67.5H135Z" fill="url(#paint0_linear_0_1)"/>
<path d="M45.9 62.5V60.42H50.06V75H47.76V62.5H45.9ZM54.4522 71.9C55.7322 70.7933 56.7389 69.8867 57.4722 69.18C58.2189 68.46 58.8389 67.7133 59.3322 66.94C59.8255 66.1667 60.0722 65.3933 60.0722 64.62C60.0722 63.82 59.8789 63.1933 59.4922 62.74C59.1189 62.2867 58.5255 62.06 57.7122 62.06C56.9255 62.06 56.3122 62.3133 55.8722 62.82C55.4455 63.3133 55.2189 63.98 55.1922 64.82H52.9922C53.0322 63.3 53.4855 62.14 54.3522 61.34C55.2322 60.5267 56.3455 60.12 57.6922 60.12C59.1455 60.12 60.2789 60.52 61.0922 61.32C61.9189 62.12 62.3322 63.1867 62.3322 64.52C62.3322 65.48 62.0855 66.4067 61.5922 67.3C61.1122 68.18 60.5322 68.9733 59.8522 69.68C59.1855 70.3733 58.3322 71.18 57.2922 72.1L56.3922 72.9H62.7322V74.8H53.0122V73.14L54.4522 71.9ZM73.9752 62.18L68.4152 75H66.1152L71.7352 62.42H64.3352V60.48H73.9752V62.18ZM89.0819 75L83.7019 68.78V75H81.4219V61.1H83.7019V67.44L89.1019 61.1H91.9619L85.9219 68.06L92.0619 75H89.0819Z" fill="#353535"/>
<defs>
<linearGradient id="paint0_linear_0_1" x1="60.1875" y1="8.4375" x2="130.5" y2="179.438" gradientUnits="userSpaceOnUse">
<stop offset="0.00520833" stop-color="#1A67FB"/>
<stop offset="1" stop-color="#EC1B24"/>
</linearGradient>
</defs>
</svg>
