<svg width="89" height="30" viewBox="0 0 89 30" fill="none" xmlns="http://www.w3.org/2000/svg">
<path d="M51.08 9.88V21H49.256V16.136H44.024V21H42.2V9.88H44.024V14.648H49.256V9.88H51.08ZM57.3053 21.144C56.4733 21.144 55.7213 20.9573 55.0493 20.584C54.3773 20.2 53.8493 19.6667 53.4653 18.984C53.0813 18.2907 52.8893 17.4907 52.8893 16.584C52.8893 15.688 53.0866 14.8933 53.4813 14.2C53.8759 13.5067 54.4146 12.9733 55.0973 12.6C55.7799 12.2267 56.5426 12.04 57.3853 12.04C58.2279 12.04 58.9906 12.2267 59.6733 12.6C60.3559 12.9733 60.8946 13.5067 61.2893 14.2C61.6839 14.8933 61.8813 15.688 61.8813 16.584C61.8813 17.48 61.6786 18.2747 61.2733 18.968C60.8679 19.6613 60.3133 20.2 59.6093 20.584C58.9159 20.9573 58.1479 21.144 57.3053 21.144ZM57.3053 19.56C57.7746 19.56 58.2119 19.448 58.6173 19.224C59.0333 19 59.3693 18.664 59.6253 18.216C59.8813 17.768 60.0093 17.224 60.0093 16.584C60.0093 15.944 59.8866 15.4053 59.6413 14.968C59.3959 14.52 59.0706 14.184 58.6653 13.96C58.2599 13.736 57.8226 13.624 57.3533 13.624C56.8839 13.624 56.4466 13.736 56.0413 13.96C55.6466 14.184 55.3319 14.52 55.0973 14.968C54.8626 15.4053 54.7453 15.944 54.7453 16.584C54.7453 17.5333 54.9853 18.2693 55.4653 18.792C55.9559 19.304 56.5693 19.56 57.3053 19.56ZM74.3564 12.04C75.0497 12.04 75.6684 12.184 76.2124 12.472C76.767 12.76 77.199 13.1867 77.5084 13.752C77.8284 14.3173 77.9884 15 77.9884 15.8V21H76.1804V16.072C76.1804 15.2827 75.983 14.68 75.5884 14.264C75.1937 13.8373 74.655 13.624 73.9724 13.624C73.2897 13.624 72.7457 13.8373 72.3404 14.264C71.9457 14.68 71.7484 15.2827 71.7484 16.072V21H69.9404V16.072C69.9404 15.2827 69.743 14.68 69.3484 14.264C68.9537 13.8373 68.415 13.624 67.7324 13.624C67.0497 13.624 66.5057 13.8373 66.1004 14.264C65.7057 14.68 65.5084 15.2827 65.5084 16.072V21H63.6844V12.184H65.5084V13.192C65.807 12.8293 66.1857 12.5467 66.6444 12.344C67.103 12.1413 67.5937 12.04 68.1164 12.04C68.8204 12.04 69.4497 12.1893 70.0044 12.488C70.559 12.7867 70.9857 13.2187 71.2844 13.784C71.551 13.2507 71.967 12.8293 72.5324 12.52C73.0977 12.2 73.7057 12.04 74.3564 12.04ZM88.3894 16.376C88.3894 16.7067 88.368 17.0053 88.3254 17.272H81.5894C81.6427 17.976 81.904 18.5413 82.3734 18.968C82.8427 19.3947 83.4187 19.608 84.1014 19.608C85.0827 19.608 85.776 19.1973 86.1814 18.376H88.1494C87.8827 19.1867 87.3974 19.8533 86.6934 20.376C86 20.888 85.136 21.144 84.1014 21.144C83.2587 21.144 82.5014 20.9573 81.8294 20.584C81.168 20.2 80.6454 19.6667 80.2614 18.984C79.888 18.2907 79.7014 17.4907 79.7014 16.584C79.7014 15.6773 79.8827 14.8827 80.2454 14.2C80.6187 13.5067 81.136 12.9733 81.7974 12.6C82.4694 12.2267 83.2374 12.04 84.1014 12.04C84.9334 12.04 85.6747 12.2213 86.3254 12.584C86.976 12.9467 87.4827 13.4587 87.8454 14.12C88.208 14.7707 88.3894 15.5227 88.3894 16.376ZM86.4854 15.8C86.4747 15.128 86.2347 14.5893 85.7654 14.184C85.296 13.7787 84.7147 13.576 84.0214 13.576C83.392 13.576 82.8534 13.7787 82.4054 14.184C81.9574 14.5787 81.6907 15.1173 81.6054 15.8H86.4854Z" fill="#FBA81A"/>
<path d="M30.0301 11.1148L25.7101 8.09227C24.5326 7.26727 22.7251 7.31227 21.5926 8.18977L17.8351 11.1223C17.0851 11.7073 16.4926 12.9073 16.4926 13.8523V19.0273C16.4926 20.9398 18.0451 22.4998 19.9576 22.4998H28.0426C29.9551 22.4998 31.5076 20.9473 31.5076 19.0348V13.9498C31.5076 12.9373 30.8551 11.6923 30.0301 11.1148ZM24.5626 19.4998C24.5626 19.8073 24.3076 20.0623 24.0001 20.0623C23.6926 20.0623 23.4376 19.8073 23.4376 19.4998V17.2498C23.4376 16.9423 23.6926 16.6873 24.0001 16.6873C24.3076 16.6873 24.5626 16.9423 24.5626 17.2498V19.4998Z" fill="#FBA81A"/>
<path d="M5 25C5 27.7614 2.76142 30 0 30L2.62268e-06 -4.37114e-07C2.76143 -1.95703e-07 5 2.23858 5 5L5 25Z" fill="#FBA81A"/>
</svg>
