<svg width="199" height="24" viewBox="0 0 199 24" fill="none" xmlns="http://www.w3.org/2000/svg">
<path d="M15.6825 11.3402C15.6825 15.0077 13.02 18.4427 9.38251 19.4477C9.13501 19.5152 8.865 19.5152 8.6175 19.4477C4.98 18.4427 2.3175 15.0077 2.3175 11.3402V8.04771C2.3175 7.43271 2.78252 6.73521 3.36002 6.50271L7.5375 4.79273C8.475 4.41023 9.5325 4.41023 10.47 4.79273L14.6475 6.50271C15.2175 6.73521 15.69 7.43271 15.69 8.04771L15.6825 11.3402Z" stroke="#353535" stroke-linecap="round" stroke-linejoin="round"/>
<path d="M9 12.375C9.82843 12.375 10.5 11.7034 10.5 10.875C10.5 10.0466 9.82843 9.375 9 9.375C8.17157 9.375 7.5 10.0466 7.5 10.875C7.5 11.7034 8.17157 12.375 9 12.375Z" stroke="#353535" stroke-miterlimit="10" stroke-linecap="round" stroke-linejoin="round"/>
<path d="M9 12.375V14.625" stroke="#353535" stroke-miterlimit="10" stroke-linecap="round" stroke-linejoin="round"/>
<path d="M34.976 10.192C34.976 10.7573 34.8427 11.2907 34.576 11.792C34.3093 12.2933 33.8827 12.704 33.296 13.024C32.7093 13.3333 31.9573 13.488 31.04 13.488H29.024V18H27.2V6.88H31.04C31.8933 6.88 32.6133 7.02933 33.2 7.328C33.7973 7.616 34.24 8.01067 34.528 8.512C34.8267 9.01333 34.976 9.57333 34.976 10.192ZM31.04 12C31.7333 12 32.2507 11.8453 32.592 11.536C32.9333 11.216 33.104 10.768 33.104 10.192C33.104 8.976 32.416 8.368 31.04 8.368H29.024V12H31.04ZM44.7956 13.376C44.7956 13.7067 44.7743 14.0053 44.7316 14.272H37.9956C38.049 14.976 38.3103 15.5413 38.7796 15.968C39.249 16.3947 39.825 16.608 40.5076 16.608C41.489 16.608 42.1823 16.1973 42.5876 15.376H44.5556C44.289 16.1867 43.8036 16.8533 43.0996 17.376C42.4063 17.888 41.5423 18.144 40.5076 18.144C39.665 18.144 38.9076 17.9573 38.2356 17.584C37.5743 17.2 37.0516 16.6667 36.6676 15.984C36.2943 15.2907 36.1076 14.4907 36.1076 13.584C36.1076 12.6773 36.289 11.8827 36.6516 11.2C37.025 10.5067 37.5423 9.97333 38.2036 9.6C38.8756 9.22667 39.6436 9.04 40.5076 9.04C41.3396 9.04 42.081 9.22133 42.7316 9.584C43.3823 9.94667 43.889 10.4587 44.2516 11.12C44.6143 11.7707 44.7956 12.5227 44.7956 13.376ZM42.8916 12.8C42.881 12.128 42.641 11.5893 42.1716 11.184C41.7023 10.7787 41.121 10.576 40.4276 10.576C39.7983 10.576 39.2596 10.7787 38.8116 11.184C38.3636 11.5787 38.097 12.1173 38.0116 12.8H42.8916ZM48.4146 10.464C48.6813 10.016 49.0333 9.66933 49.4706 9.424C49.9186 9.168 50.4466 9.04 51.0546 9.04V10.928H50.5906C49.876 10.928 49.332 11.1093 48.9586 11.472C48.596 11.8347 48.4146 12.464 48.4146 13.36V18H46.5906V9.184H48.4146V10.464ZM63.4033 9.04C64.0966 9.04 64.7153 9.184 65.2593 9.472C65.8139 9.76 66.2459 10.1867 66.5553 10.752C66.8753 11.3173 67.0353 12 67.0353 12.8V18H65.2273V13.072C65.2273 12.2827 65.0299 11.68 64.6353 11.264C64.2406 10.8373 63.7019 10.624 63.0193 10.624C62.3366 10.624 61.7926 10.8373 61.3873 11.264C60.9926 11.68 60.7953 12.2827 60.7953 13.072V18H58.9873V13.072C58.9873 12.2827 58.7899 11.68 58.3953 11.264C58.0006 10.8373 57.4619 10.624 56.7793 10.624C56.0966 10.624 55.5526 10.8373 55.1473 11.264C54.7526 11.68 54.5553 12.2827 54.5553 13.072V18H52.7313V9.184H54.5553V10.192C54.8539 9.82933 55.2326 9.54667 55.6913 9.344C56.1499 9.14133 56.6406 9.04 57.1633 9.04C57.8673 9.04 58.4966 9.18933 59.0513 9.488C59.6059 9.78667 60.0326 10.2187 60.3313 10.784C60.5979 10.2507 61.0139 9.82933 61.5793 9.52C62.1446 9.2 62.7526 9.04 63.4033 9.04ZM70.2843 8.016C69.9536 8.016 69.6763 7.904 69.4523 7.68C69.2283 7.456 69.1163 7.17867 69.1163 6.848C69.1163 6.51733 69.2283 6.24 69.4523 6.016C69.6763 5.792 69.9536 5.68 70.2843 5.68C70.6043 5.68 70.8763 5.792 71.1003 6.016C71.3243 6.24 71.4363 6.51733 71.4363 6.848C71.4363 7.17867 71.3243 7.456 71.1003 7.68C70.8763 7.904 70.6043 8.016 70.2843 8.016ZM71.1803 9.184V18H69.3563V9.184H71.1803ZM76.775 18.144C76.0817 18.144 75.4577 18.0213 74.903 17.776C74.359 17.52 73.927 17.1787 73.607 16.752C73.287 16.3147 73.1163 15.8293 73.095 15.296H74.983C75.015 15.6693 75.191 15.984 75.511 16.24C75.8417 16.4853 76.2523 16.608 76.743 16.608C77.255 16.608 77.6497 16.512 77.927 16.32C78.215 16.1173 78.359 15.8613 78.359 15.552C78.359 15.2213 78.199 14.976 77.879 14.816C77.5697 14.656 77.0737 14.48 76.391 14.288C75.7297 14.1067 75.191 13.9307 74.775 13.76C74.359 13.5893 73.9963 13.328 73.687 12.976C73.3883 12.624 73.239 12.16 73.239 11.584C73.239 11.1147 73.3777 10.688 73.655 10.304C73.9323 9.90933 74.327 9.6 74.839 9.376C75.3617 9.152 75.959 9.04 76.631 9.04C77.6337 9.04 78.439 9.296 79.047 9.808C79.6657 10.3093 79.9963 10.9973 80.039 11.872H78.215C78.183 11.4773 78.023 11.1627 77.735 10.928C77.447 10.6933 77.0577 10.576 76.567 10.576C76.087 10.576 75.719 10.6667 75.463 10.848C75.207 11.0293 75.079 11.2693 75.079 11.568C75.079 11.8027 75.1643 12 75.335 12.16C75.5057 12.32 75.7137 12.448 75.959 12.544C76.2043 12.6293 76.567 12.7413 77.047 12.88C77.687 13.0507 78.2097 13.2267 78.615 13.408C79.031 13.5787 79.3883 13.8347 79.687 14.176C79.9857 14.5173 80.1403 14.9707 80.151 15.536C80.151 16.0373 80.0123 16.4853 79.735 16.88C79.4577 17.2747 79.063 17.584 78.551 17.808C78.0497 18.032 77.4577 18.144 76.775 18.144ZM85.3219 18.144C84.6285 18.144 84.0045 18.0213 83.4499 17.776C82.9059 17.52 82.4739 17.1787 82.1539 16.752C81.8339 16.3147 81.6632 15.8293 81.6419 15.296H83.5299C83.5619 15.6693 83.7379 15.984 84.0579 16.24C84.3885 16.4853 84.7992 16.608 85.2899 16.608C85.8019 16.608 86.1965 16.512 86.4739 16.32C86.7619 16.1173 86.9059 15.8613 86.9059 15.552C86.9059 15.2213 86.7459 14.976 86.4259 14.816C86.1165 14.656 85.6205 14.48 84.9379 14.288C84.2765 14.1067 83.7379 13.9307 83.3219 13.76C82.9059 13.5893 82.5432 13.328 82.2339 12.976C81.9352 12.624 81.7859 12.16 81.7859 11.584C81.7859 11.1147 81.9245 10.688 82.2019 10.304C82.4792 9.90933 82.8739 9.6 83.3859 9.376C83.9085 9.152 84.5059 9.04 85.1779 9.04C86.1805 9.04 86.9859 9.296 87.5939 9.808C88.2125 10.3093 88.5432 10.9973 88.5859 11.872H86.7619C86.7299 11.4773 86.5699 11.1627 86.2819 10.928C85.9939 10.6933 85.6045 10.576 85.1139 10.576C84.6339 10.576 84.2659 10.6667 84.0099 10.848C83.7539 11.0293 83.6259 11.2693 83.6259 11.568C83.6259 11.8027 83.7112 12 83.8819 12.16C84.0525 12.32 84.2605 12.448 84.5059 12.544C84.7512 12.6293 85.1139 12.7413 85.5939 12.88C86.2339 13.0507 86.7565 13.2267 87.1619 13.408C87.5779 13.5787 87.9352 13.8347 88.2339 14.176C88.5325 14.5173 88.6872 14.9707 88.6979 15.536C88.6979 16.0373 88.5592 16.4853 88.2819 16.88C88.0045 17.2747 87.6099 17.584 87.0979 17.808C86.5965 18.032 86.0045 18.144 85.3219 18.144ZM91.5968 8.016C91.2661 8.016 90.9888 7.904 90.7648 7.68C90.5408 7.456 90.4288 7.17867 90.4288 6.848C90.4288 6.51733 90.5408 6.24 90.7648 6.016C90.9888 5.792 91.2661 5.68 91.5968 5.68C91.9168 5.68 92.1888 5.792 92.4128 6.016C92.6368 6.24 92.7488 6.51733 92.7488 6.848C92.7488 7.17867 92.6368 7.456 92.4128 7.68C92.1888 7.904 91.9168 8.016 91.5968 8.016ZM92.4928 9.184V18H90.6688V9.184H92.4928ZM98.7115 18.144C97.8795 18.144 97.1275 17.9573 96.4555 17.584C95.7835 17.2 95.2555 16.6667 94.8715 15.984C94.4875 15.2907 94.2955 14.4907 94.2955 13.584C94.2955 12.688 94.4928 11.8933 94.8875 11.2C95.2822 10.5067 95.8208 9.97333 96.5035 9.6C97.1862 9.22667 97.9488 9.04 98.7915 9.04C99.6342 9.04 100.397 9.22667 101.08 9.6C101.762 9.97333 102.301 10.5067 102.696 11.2C103.09 11.8933 103.288 12.688 103.288 13.584C103.288 14.48 103.085 15.2747 102.68 15.968C102.274 16.6613 101.72 17.2 101.016 17.584C100.322 17.9573 99.5542 18.144 98.7115 18.144ZM98.7115 16.56C99.1808 16.56 99.6182 16.448 100.024 16.224C100.44 16 100.776 15.664 101.032 15.216C101.288 14.768 101.416 14.224 101.416 13.584C101.416 12.944 101.293 12.4053 101.048 11.968C100.802 11.52 100.477 11.184 100.072 10.96C99.6662 10.736 99.2288 10.624 98.7595 10.624C98.2902 10.624 97.8528 10.736 97.4475 10.96C97.0528 11.184 96.7382 11.52 96.5035 11.968C96.2688 12.4053 96.1515 12.944 96.1515 13.584C96.1515 14.5333 96.3915 15.2693 96.8715 15.792C97.3622 16.304 97.9755 16.56 98.7115 16.56ZM109.539 9.04C110.232 9.04 110.851 9.184 111.395 9.472C111.949 9.76 112.381 10.1867 112.691 10.752C113 11.3173 113.155 12 113.155 12.8V18H111.347V13.072C111.347 12.2827 111.149 11.68 110.755 11.264C110.36 10.8373 109.821 10.624 109.139 10.624C108.456 10.624 107.912 10.8373 107.507 11.264C107.112 11.68 106.915 12.2827 106.915 13.072V18H105.091V9.184H106.915V10.192C107.213 9.82933 107.592 9.54667 108.051 9.344C108.52 9.14133 109.016 9.04 109.539 9.04ZM118.681 18.144C117.988 18.144 117.364 18.0213 116.809 17.776C116.265 17.52 115.833 17.1787 115.513 16.752C115.193 16.3147 115.023 15.8293 115.001 15.296H116.889C116.921 15.6693 117.097 15.984 117.417 16.24C117.748 16.4853 118.159 16.608 118.649 16.608C119.161 16.608 119.556 16.512 119.833 16.32C120.121 16.1173 120.265 15.8613 120.265 15.552C120.265 15.2213 120.105 14.976 119.785 14.816C119.476 14.656 118.98 14.48 118.297 14.288C117.636 14.1067 117.097 13.9307 116.681 13.76C116.265 13.5893 115.903 13.328 115.593 12.976C115.295 12.624 115.145 12.16 115.145 11.584C115.145 11.1147 115.284 10.688 115.561 10.304C115.839 9.90933 116.233 9.6 116.745 9.376C117.268 9.152 117.865 9.04 118.537 9.04C119.54 9.04 120.345 9.296 120.953 9.808C121.572 10.3093 121.903 10.9973 121.945 11.872H120.121C120.089 11.4773 119.929 11.1627 119.641 10.928C119.353 10.6933 118.964 10.576 118.473 10.576C117.993 10.576 117.625 10.6667 117.369 10.848C117.113 11.0293 116.985 11.2693 116.985 11.568C116.985 11.8027 117.071 12 117.241 12.16C117.412 12.32 117.62 12.448 117.865 12.544C118.111 12.6293 118.473 12.7413 118.953 12.88C119.593 13.0507 120.116 13.2267 120.521 13.408C120.937 13.5787 121.295 13.8347 121.593 14.176C121.892 14.5173 122.047 14.9707 122.057 15.536C122.057 16.0373 121.919 16.4853 121.641 16.88C121.364 17.2747 120.969 17.584 120.457 17.808C119.956 18.032 119.364 18.144 118.681 18.144Z" fill="#353535"/>
<path d="M191 16.4517L183.638 9.08971L185.18 7.54794L191 13.3681L196.82 7.54794L198.362 9.08972L191 16.4517Z" fill="#7E7E7E"/>
</svg>
